<svg width="68" height="40" fill="none" xmlns="http://www.w3.org/2000/svg"><path d="M66.97 5.495H51.515V4.327a1.03 1.03 0 00-.704-.977l-3.297-1.1a1.03 1.03 0 00-.326-.052H44.92v-.069a1.03 1.03 0 00-1.03-1.03h-3.366V1.03A1.03 1.03 0 0039.495 0H5.027A5.032 5.032 0 000 5.027v7.393a5.035 5.035 0 003.819 4.88L.252 36.916c-.113.623.055 1.26.46 1.745a2.124 2.124 0 001.635.765h9.124a2.682 2.682 0 002.678-2.678 2.682 2.682 0 00-2.494-2.673L13.48 24.04h4.035a1.03 1.03 0 00.946-1.438c-.01-.024-.942-2.273-.183-5.155h7.476c1.957 0 3.871-.37 5.688-1.096l7.023-2.809v1.844h-1.168a1.03 1.03 0 000 2.06h1.168V34.07h-.069a1.03 1.03 0 000 2.06h6.594a1.03 1.03 0 000-2.06h-.069V17.446h1.168a1.03 1.03 0 000-2.06H44.92v-4.534h2.267c.11 0 .22-.017.326-.052l3.297-1.1c.42-.14.704-.533.704-.977V7.556H66.97a1.03 1.03 0 000-2.061zM9.63 35.759c.196.235.486.37.792.37h1.049a.619.619 0 010 1.237H2.347c-.01 0-.032 0-.053-.025a.063.063 0 01-.014-.056l.21-1.156h4.035a1.03 1.03 0 000-2.06h-3.66L6.04 16.6a1.03 1.03 0 00-1.013-1.214A2.97 2.97 0 012.06 12.42V5.027A2.97 2.97 0 015.027 2.06h19.15v13.325H13.82a1.03 1.03 0 00-1.014.846L9.408 34.915c-.055.3.027.61.223.844zm6.513-13.78h-2.289l.824-4.532h1.48a11.026 11.026 0 00-.015 4.533zm14.534-7.541a13.189 13.189 0 01-4.439.936V2.061h12.227v9.262l-7.788 3.115zm12.184 19.63h-2.336v-16.62h2.336V34.07zm-2.336-18.682V3.16h2.336v12.226h-2.336zm8.93-7.405l-2.434.81h-2.1V4.26h2.1l2.434.81v2.912z" fill="#F5540B"/><path d="M21.911 11.951a1.03 1.03 0 001.03-1.03V6.525a1.03 1.03 0 00-2.06 0v4.396c0 .57.461 1.03 1.03 1.03zm-3.297 0a1.03 1.03 0 001.03-1.03V6.525a1.03 1.03 0 00-2.06 0v4.396c0 .57.461 1.03 1.03 1.03zm-3.297 0a1.03 1.03 0 001.03-1.03V6.525a1.03 1.03 0 00-2.06 0v4.396c0 .57.461 1.03 1.03 1.03z" fill="#F5540B"/></svg>