<svg width="70" height="70" fill="none" xmlns="http://www.w3.org/2000/svg"><circle cx="42" cy="15" r="10" fill="#FDDDCE"/><path fill-rule="evenodd" clip-rule="evenodd" d="M35.849 35A10.469 10.469 0 0039 27.5C39 21.701 34.299 17 28.5 17S18 21.701 18 27.5c0 2.938 1.207 5.594 3.151 7.5H35.85z" fill="#FDDDCE"/><path d="M42.361 4C36.32 4 31.404 8.915 31.404 14.957a.924.924 0 101.848 0c0-5.023 4.087-9.11 9.11-9.11 5.022 0 9.109 4.087 9.109 9.11s-4.087 9.11-9.11 9.11a9.25 9.25 0 01-1.08-.064.925.925 0 00-.217 1.835c.427.05.864.076 1.297.076 6.042 0 10.958-4.915 10.958-10.957C53.319 8.915 48.403 4 42.36 4zM24.173 17.88a.924.924 0 00-1.267-.317 11.022 11.022 0 00-5.33 9.404c0 2.36.739 4.61 2.138 6.502a.924.924 0 101.486-1.098 9.03 9.03 0 01-1.777-5.404 9.046 9.046 0 014.433-7.819.924.924 0 00.317-1.267z" fill="#F5540B"/><path d="M28.533 16.01c-.774 0-1.547.08-2.297.24a.924.924 0 00.386 1.808 9.165 9.165 0 011.91-.2c5.024 0 9.11 4.086 9.11 9.109a9.03 9.03 0 01-1.776 5.404.924.924 0 001.486 1.098 10.865 10.865 0 002.138-6.502c0-6.042-4.915-10.957-10.957-10.957zM52.41 27.09H41.252a.924.924 0 100 1.847h11.157c.357 0 .648.29.648.647v1.181h-12.38a.924.924 0 100 1.848h12.38v.624a.924.924 0 101.847 0v-3.653a2.498 2.498 0 00-2.495-2.495z" fill="#F5540B"/><path d="M53.98 43.284a.924.924 0 00.925-.924v-4.612a3.18 3.18 0 00-3.177-3.176H17.665a2.82 2.82 0 01-2.817-2.808v-.012a2.825 2.825 0 011.66-2.567.924.924 0 10-.76-1.684A4.675 4.675 0 0013 31.755v29.58A4.67 4.67 0 0017.665 66h34.063a3.18 3.18 0 003.176-3.176v-6.05a.924.924 0 10-1.847 0v6.05a1.33 1.33 0 01-1.329 1.328H17.665a2.82 2.82 0 01-2.817-2.818V35.47a4.64 4.64 0 002.817.95h34.063a1.33 1.33 0 011.329 1.328v4.612c0 .51.413.924.924.924z" fill="#F5540B"/><path d="M54.095 44.021H47.51a5.552 5.552 0 00-5.546 5.546 5.552 5.552 0 005.546 5.546h1.674a.924.924 0 100-1.848H47.51a3.702 3.702 0 01-3.698-3.698 3.702 3.702 0 013.698-3.698h6.585a.71.71 0 01.708.708v5.98a.71.71 0 01-.708.708h-1.831a.924.924 0 100 1.848h1.83a2.559 2.559 0 002.557-2.556v-5.98a2.559 2.559 0 00-2.556-2.556z" fill="#F5540B"/><path d="M47.407 46.794a2.776 2.776 0 00-2.773 2.773 2.776 2.776 0 002.773 2.773 2.776 2.776 0 002.773-2.773 2.776 2.776 0 00-2.773-2.773zm0 3.698a.926.926 0 010-1.85.926.926 0 010 1.85zM22.322 8.674a.924.924 0 00-.924.924v4.68a.924.924 0 101.848 0v-4.68a.924.924 0 00-.924-.924zm4.619-1.848a.924.924 0 00-.924.924v4.68a.924.924 0 101.848 0V7.75a.924.924 0 00-.924-.924z" fill="#F5540B"/></svg>