<svg width="70" height="70" fill="none" xmlns="http://www.w3.org/2000/svg"><circle cx="26" cy="35" r="13" fill="#FDDDCE"/><path d="M26.096 21.695c-7.494 0-13.59 6.097-13.59 13.59 0 7.495 6.096 13.592 13.59 13.592s13.591-6.097 13.591-13.591c0-7.494-6.097-13.591-13.591-13.591zm0 25.212c-6.408 0-11.621-5.213-11.621-11.621s5.213-11.622 11.621-11.622 11.621 5.214 11.621 11.622c0 6.408-5.213 11.621-11.621 11.621z" fill="#F5540B"/><path d="M66.015 47.958a.985.985 0 00-.985.984v5.319H50.192V35.806c0-3.105-.571-6.134-1.66-8.96l.951-.95a3.123 3.123 0 00.515-3.692 27.28 27.28 0 00-10.821-10.822 3.123 3.123 0 00-3.693.516l-.874.874a23.489 23.489 0 00-8.14-1.58c-6.58-.102-12.763 2.405-17.412 7.054-4.65 4.65-7.155 10.833-7.055 17.413.097 6.38 2.734 12.36 7.425 16.84a24.785 24.785 0 0017.19 6.882h20.488a3.09 3.09 0 003.086-3.086v-.066h15.823a.985.985 0 00.985-.985v-6.303a.985.985 0 00-.985-.984zM36.877 13.29c.35-.35.907-.425 1.353-.18a25.313 25.313 0 0110.04 10.04c.245.446.17 1.003-.18 1.354l-.402.4a24.9 24.9 0 00-4.38-6.287 24.174 24.174 0 00-6.764-4.994l.332-.333zm11.345 43.005c0 .615-.5 1.116-1.116 1.116H26.618c-12.305 0-22.463-9.771-22.646-21.782-.091-6.042 2.21-11.72 6.478-15.99 4.188-4.187 9.73-6.48 15.643-6.48.115 0 .231 0 .347.002 12.01.182 21.782 10.341 21.782 22.645v20.489z" fill="#F5540B"/><path d="M32.072 18.382c.765.27 1.52.597 2.242.97a.985.985 0 00.905-1.75 19.867 19.867 0 00-2.49-1.077.985.985 0 00-.657 1.857zm6.182 1.156a.985.985 0 00-1.205 1.558 18.09 18.09 0 015.108 6.223.985.985 0 101.764-.876 20.072 20.072 0 00-5.667-6.905zm-5.37 10.695a.985.985 0 00-.36 1.346 7.416 7.416 0 01.991 3.707c0 4.09-3.328 7.42-7.42 7.42-4.09 0-7.418-3.33-7.418-7.42 0-4.091 3.328-7.42 7.419-7.42 1.705 0 3.309.563 4.636 1.627a.985.985 0 101.232-1.537 9.415 9.415 0 00-5.868-2.059c-5.177 0-9.389 4.212-9.389 9.389s4.212 9.389 9.389 9.389 9.389-4.212 9.389-9.39a9.389 9.389 0 00-1.255-4.692.984.984 0 00-1.346-.36z" fill="#F5540B"/></svg>