<svg width="70" height="70" fill="none" xmlns="http://www.w3.org/2000/svg"><path fill-rule="evenodd" clip-rule="evenodd" d="M31.5 14l1.5-3.5 1.5-2 19-.5 5 .5L62 11v14l-4 3.5h-5.5l-12 6V29l-4-.5L33 27l-1-3.5-.5-9.5zm8 6a1.5 1.5 0 100-3 1.5 1.5 0 000 3zm8.5-1.5a1.5 1.5 0 11-3 0 1.5 1.5 0 013 0zm5.5 1.5a1.5 1.5 0 100-3 1.5 1.5 0 000 3z" fill="#FDDDCE"/><path d="M54.219 54.088h0c.021-.256.002-.51-.053-.755l-.345.345a.893.893 0 01-1.268 0 .896.896 0 010-1.267l.616-.617-1.052-1.052-.617.616a.894.894 0 01-1.268 0 .897.897 0 010-1.268l.036.036-.036-.036.617-.616-1.052-1.053-.617.617a.894.894 0 01-1.268 0s0 0 0 0l.036-.035a.846.846 0 010-1.198l6.27 6.283zm0 0a2.477 2.477 0 01-1.037 1.815s0 0 0 0l-1.627 1.153-10.302-10.302 1.83-1.685a2.47 2.47 0 013.097-.207l-.588.588a.897.897 0 001.268 1.268l.616-.617 1.053 1.052 5.69 6.935zM24.967 26.95l-.036-.034a2.473 2.473 0 00-.072-3.432l-1.777-1.777-.566.566a.894.894 0 01-1.267 0 .896.896 0 010-1.268l3.718 5.945zm0 0l-.036-.034-1.685 1.831-10.302-10.302 1.153-1.627a2.476 2.476 0 011.815-1.037c.729-.061 1.445.2 1.962.718l1.62 1.62-.566.566a.896.896 0 101.268 1.267l.566-.566m4.205 7.564l-4.205-7.563m0 0l1.052 1.052-.565.566-.487-1.618zM37.619 47.66h0a1.57 1.57 0 01-1.985.115l-.03.04.03-.04a61.803 61.803 0 01-13.41-13.409h0a1.57 1.57 0 01.117-1.985h0l3.91-4.25s0 0 0 0a4.262 4.262 0 00-.124-5.915l-.035.036.035-.036-6.985-6.985h0a4.266 4.266 0 00-3.38-1.236 4.265 4.265 0 00-3.128 1.786h0L8.12 22.15a11.693 11.693 0 00-2.164 7.187 11.72 11.72 0 002.61 7.04 165.918 165.918 0 0020.397 21.157l.033-.038-.033.038a.896.896 0 101.176-1.354A164.092 164.092 0 019.962 35.252l-.04.031.04-.03c-2.798-3.472-2.953-8.433-.38-12.065l2.31-3.259 10.14 10.14-1.01 1.098a3.366 3.366 0 00-.244 4.258 63.586 63.586 0 0013.797 13.797 3.366 3.366 0 004.258-.242l1.099-1.011 10.14 10.14-3.26 2.31c-3.633 2.572-8.594 2.416-12.064-.38-.71-.573-1.397-1.137-2.043-1.676h0a.897.897 0 00-1.15 1.377c.655.546 1.35 1.115 2.068 1.694l.032-.038-.032.038a11.72 11.72 0 007.42 2.616c2.451 0 4.797-.746 6.806-2.169l-.029-.04.03.04 6.37-4.515-.03-.04.03.04a4.266 4.266 0 001.786-3.127 4.263 4.263 0 00-1.237-3.38l-6.985-6.986-.036.035.036-.035a4.262 4.262 0 00-5.914-.123l-4.251 3.91zm11.525 1.343l.617-.617-.617.616zm4.06 2.826l-.616.617a.846.846 0 101.197 1.197l-.58-1.814z" fill="#F5540B" stroke="#F5540B" stroke-width=".1"/><path d="M56.433 7h-4.65a.847.847 0 000 1.693h4.65a4.88 4.88 0 014.874 4.875v9.893a4.88 4.88 0 01-4.874 4.875H50.85a.847.847 0 00-.388.094l-9.53 4.923.82-4.001a.846.846 0 00-.83-1.017h-3.936a4.88 4.88 0 01-4.874-4.874v-9.893a4.88 4.88 0 014.874-4.875h11.411a.846.846 0 100-1.693h-11.41a6.575 6.575 0 00-6.568 6.568v9.893a6.575 6.575 0 006.567 6.568h2.898l-.967 4.72a.846.846 0 001.219.921l10.92-5.642h5.377A6.575 6.575 0 0063 23.462v-9.893A6.575 6.575 0 0056.433 7z" fill="#F5540B"/><path d="M36.712 18.55a2.885 2.885 0 002.882 2.883 2.885 2.885 0 002.882-2.883 2.885 2.885 0 00-2.882-2.882 2.886 2.886 0 00-2.882 2.882zm3.971 0a1.09 1.09 0 01-2.178 0 1.09 1.09 0 012.178 0zm16.024 0a2.885 2.885 0 00-2.882-2.882 2.885 2.885 0 00-2.882 2.882 2.885 2.885 0 002.882 2.883 2.885 2.885 0 002.882-2.883zm-3.971 0a1.09 1.09 0 012.178 0 1.09 1.09 0 01-2.178 0zm-6.026-2.882a2.886 2.886 0 00-2.883 2.882 2.885 2.885 0 002.883 2.883 2.885 2.885 0 002.882-2.883 2.885 2.885 0 00-2.883-2.882zm0 3.972a1.09 1.09 0 010-2.179 1.09 1.09 0 010 2.179z" fill="#F5540B" stroke="#F5540B" stroke-width=".1"/></svg>